<svg xmlns="http://www.w3.org/2000/svg" xmlns:xlink="http://www.w3.org/1999/xlink" width="125" height="50" viewBox="0 0 125 50">
  <path fill="#0096FA" d="M35.9303482,16.8635386 C39.1543299,19.6660093 41.0265893,23.6778701 41.017062,28.0494589 C41.0300538,32.5018853 38.8994023,36.3971089 35.5934281,39.0058578 C32.2871651,41.6296194 27.842245,43.0821001 22.9567593,43.0821001 C17.396856,43.0821001 12.2388317,41.0585586 12.2388317,41.0585586 L12.2388317,47.5856275 C13.1918507,47.8645177 14.7560607,48.4621394 13.7632002,49.4549999 L6.24038372,49.4549999 C5.25705053,48.4719554 6.69942652,47.8933883 7.79073582,47.5856275 L7.79073582,19.9168949 C5.25936018,21.8601761 3.9627808,23.5439105 3.30048886,24.7940082 C4.06758114,27.2407929 2.61885361,27.1195363 2.61885361,27.1195363 L0,22.9653433 C0,22.9653433 9.29374011,12.4275683 22.9567593,12.4275683 C28.1987971,12.4275683 32.7095422,14.0506744 35.9303482,16.8635386 Z M31.9436047,36.8215069 C34.2298689,34.5467911 35.5143226,31.5806239 35.5276031,27.9790145 C35.5169209,24.2832869 34.3153259,21.1034773 32.1145188,18.7098145 C29.9102472,16.3300096 26.6495998,14.7623351 22.4977165,14.7591593 C19.0803016,14.7522304 14.8484467,15.8937745 12.2391204,17.7466907 L12.2391204,38.5052413 C14.6171931,39.6756561 18.2190911,40.5036653 22.4977165,40.5013557 C26.3328892,40.5042427 29.6576293,39.0774569 31.9436047,36.8215069 Z M47.6711617,12.4275683 C48.350776,12.4275683 48.9030709,12.9789971 48.9030709,13.6591888 L48.9030709,41.9564347 C48.9030709,42.6366265 48.350776,43.1883439 47.6711617,43.1883439 L46.1392868,43.1883439 C45.4585177,43.1883439 44.9076663,42.6363378 44.9076663,41.9564347 L44.9076663,13.6591888 C44.9076663,12.9789971 45.4585177,12.4275683 46.1392868,12.4275683 L47.6711617,12.4275683 Z M87.7121082,12.4275683 C88.3914338,12.4275683 88.9437287,12.9789971 88.9440174,13.6591888 L88.9440174,41.9564347 C88.9440174,42.6366265 88.3917225,43.1883439 87.7121082,43.1883439 L86.1799446,43.1883439 C85.4991755,43.1883439 84.9483241,42.6363378 84.9483241,41.9564347 L84.9483241,13.6591888 C84.9483241,12.9789971 85.4994642,12.4275683 86.1799446,12.4275683 L87.7121082,12.4275683 Z M123.73311,12.4275683 C124.782268,12.4275683 125.347266,12.8935401 124.756285,14.0804111 C124.166169,15.2669935 110.525958,42.0413144 110.502284,42.0895283 L110.502284,42.0903944 C110.142556,42.76972 109.485461,43.1883439 108.777842,43.1883439 C108.067914,43.1883439 107.410818,42.76972 107.052245,42.0903944 C107.052245,42.0903944 93.3883601,15.2678596 92.7962237,14.0804111 C92.2052422,12.8935401 92.771395,12.4275683 93.8205532,12.4275683 L95.2456068,12.4275683 C96.3660755,12.4275683 96.6749911,12.5722101 97.1796494,13.5829704 C97.6808433,14.5891114 108.776687,36.5749519 108.776687,36.5749519 C108.776687,36.5749519 119.871665,14.5888227 120.374014,13.5829704 C120.878384,12.5722101 121.187299,12.4275683 122.307768,12.4275683 L123.73311,12.4275683 Z M75.6124329,42.1596839 C75.0353093,41.4220396 66.9194903,31.0707689 66.9194903,31.0707689 C66.9194903,31.0707689 58.501396,41.4220396 57.9234063,42.1596839 C57.3442617,42.8970394 56.9293909,43.1883439 55.8089223,43.1883439 L53.5119761,43.1883439 C52.0664243,43.1883439 52.5751246,42.5312487 52.9836438,41.9922343 C54.0056636,40.6459975 64.3791648,27.8441888 64.3791648,27.8441888 C64.3791648,27.8441888 53.9398386,14.9696261 52.9186849,13.6231006 C52.5101657,13.0843749 52.0014654,12.4275683 53.4470172,12.4275683 L55.7439634,12.4275683 C56.8632772,12.4275683 57.2793028,12.7180067 57.8572926,13.4562284 C58.435571,14.1927178 66.9194903,24.6161652 66.9194903,24.6161652 C66.9194903,24.6161652 75.3973468,14.1930065 75.9753365,13.4562284 C76.5533263,12.7180067 76.9693519,12.4275683 78.0898205,12.4275683 L80.3856119,12.4275683 C81.8323185,12.4275683 81.3233295,13.0846636 80.9148103,13.6231006 C79.8927905,14.9696261 69.4603933,27.8441888 69.4603933,27.8441888 C69.4603933,27.8441888 79.5310417,40.6459975 80.5519066,41.9922343 C80.961292,42.5315374 81.4691261,43.1883439 80.0235744,43.1883439 L77.7266281,43.1883439 C76.6073143,43.1883439 76.1915775,42.8970394 75.6124329,42.1596839 Z M46.9008937,0.545000076 C47.8137825,0.545000076 48.5745233,0.849873785 49.1828272,1.45846638 C49.7919972,2.06677026 50.0968709,2.82808842 50.0968709,3.74155472 C50.0968709,4.65444361 49.7919972,5.41576176 49.1828272,6.02406565 C48.5745233,6.63294694 47.8137825,6.93782065 46.9008937,6.93782065 C45.9868499,6.93782065 45.2261092,6.63294694 44.6169392,6.02406565 C44.0086353,5.41576176 43.7040503,4.65444361 43.7040503,3.74155472 C43.7040503,2.82808842 44.0086353,2.06677026 44.6169392,1.45846638 C45.2261092,0.849873785 45.9868499,0.545000076 46.9008937,0.545000076 Z M86.9418402,0.545000076 C87.8558839,0.545000076 88.6163359,0.849873785 89.2257946,1.45846638 C89.8338098,2.06677026 90.1386835,2.82808842 90.1386835,3.74155472 C90.1386835,4.65444361 89.8338098,5.41576176 89.2257946,6.02406565 C88.6166246,6.63294694 87.8558839,6.93782065 86.9418402,6.93782065 C86.0289513,6.93782065 85.2682105,6.63294694 84.6599066,6.02406565 C84.0507366,5.41576176 83.7461516,4.65444361 83.7461516,3.74155472 C83.7461516,2.82808842 84.0507366,2.06677026 84.6599066,1.45846638 C85.2682105,0.849873785 86.0289513,0.545000076 86.9418402,0.545000076 Z"/>
</svg>
