<svg width="72" height="72" viewBox="0 0 72 72" fill="none" xmlns="http://www.w3.org/2000/svg">
<path d="M6 24C6 14.0589 14.0589 6 24 6H48C57.9411 6 66 14.0589 66 24V48C66 57.9411 57.9411 66 48 66H24C14.0589 66 6 57.9411 6 48V24Z" fill="black" fill-opacity="0.16"/>
<path fill-rule="evenodd" clip-rule="evenodd" d="M56.6249 33.5657C56.6348 28.9999 54.6878 24.8099 51.3349 21.883C47.9854 18.9452 43.2944 17.25 37.8429 17.25C23.6339 17.25 13.9688 28.2558 13.9688 28.2558L16.6923 32.5945C16.6923 32.5945 18.1989 32.7211 17.4011 30.1657C18.0899 28.86 19.4383 27.1015 22.0708 25.0719V53.9695C20.9359 54.2909 19.4359 54.8952 20.4585 55.9219H28.282C29.3145 54.8849 27.6878 54.2608 26.6967 53.9695V47.1525C26.6967 47.1525 32.0608 49.2659 37.8429 49.2659C42.9236 49.2659 47.5462 47.749 50.9846 45.0087C54.4226 42.2841 56.6384 38.2158 56.6249 33.5657ZM50.916 33.4921C50.9022 37.2537 49.5664 40.3516 47.1888 42.7273C44.8115 45.0834 41.3539 46.5736 37.3654 46.5706C32.9158 46.573 29.17 45.7082 26.6969 44.4858V22.8054C29.4105 20.8701 33.8114 19.6779 37.3654 19.6851C41.6832 19.6885 45.0742 21.3258 47.3665 23.8112C49.6553 26.3112 50.9049 29.6322 50.916 33.4921Z" fill="white"/>
</svg>
